<?xml version="1.0" encoding="UTF-8"?>
<!DOCTYPE svg PUBLIC "-//W3C//DTD SVG 1.1//EN" "http://www.w3.org/Graphics/SVG/1.1/DTD/svg11.dtd">
<svg version="1.2" viewBox="17766 4471 7009 7009" preserveAspectRatio="xMidYMid" fill-rule="evenodd" stroke-width="28.222" stroke-linejoin="round" xmlns="http://www.w3.org/2000/svg" xmlns:ooo="http://xml.openoffice.org/svg/export" xmlns:xlink="http://www.w3.org/1999/xlink" xmlns:presentation="http://sun.com/xmlns/staroffice/presentation" xmlns:smil="http://www.w3.org/2001/SMIL20/" xmlns:anim="urn:oasis:names:tc:opendocument:xmlns:animation:1.0" xmlns:svg="urn:oasis:names:tc:opendocument:xmlns:svg-compatible:1.0" xml:space="preserve">
 <defs class="EmbeddedBulletChars">
  <g id="bullet-char-template-57356" transform="scale(0.00048828125,-0.00048828125)">
   <path d="M 580,1141 L 1163,571 580,0 -4,571 580,1141 Z"/>
  </g>
  <g id="bullet-char-template-57354" transform="scale(0.00048828125,-0.00048828125)">
   <path d="M 8,1128 L 1137,1128 1137,0 8,0 8,1128 Z"/>
  </g>
  <g id="bullet-char-template-10146" transform="scale(0.00048828125,-0.00048828125)">
   <path d="M 174,0 L 602,739 174,1481 1456,739 174,0 Z M 1358,739 L 309,1346 659,739 1358,739 Z"/>
  </g>
  <g id="bullet-char-template-10132" transform="scale(0.00048828125,-0.00048828125)">
   <path d="M 2015,739 L 1276,0 717,0 1260,543 174,543 174,936 1260,936 717,1481 1274,1481 2015,739 Z"/>
  </g>
  <g id="bullet-char-template-10007" transform="scale(0.00048828125,-0.00048828125)">
   <path d="M 0,-2 C -7,14 -16,27 -25,37 L 356,567 C 262,823 215,952 215,954 215,979 228,992 255,992 264,992 276,990 289,987 310,991 331,999 354,1012 L 381,999 492,748 772,1049 836,1024 860,1049 C 881,1039 901,1025 922,1006 886,937 835,863 770,784 769,783 710,716 594,584 L 774,223 C 774,196 753,168 711,139 L 727,119 C 717,90 699,76 672,76 641,76 570,178 457,381 L 164,-76 C 142,-110 111,-127 72,-127 30,-127 9,-110 8,-76 1,-67 -2,-52 -2,-32 -2,-23 -1,-13 0,-2 Z"/>
  </g>
  <g id="bullet-char-template-10004" transform="scale(0.00048828125,-0.00048828125)">
   <path d="M 285,-33 C 182,-33 111,30 74,156 52,228 41,333 41,471 41,549 55,616 82,672 116,743 169,778 240,778 293,778 328,747 346,684 L 369,508 C 377,444 397,411 428,410 L 1163,1116 C 1174,1127 1196,1133 1229,1133 1271,1133 1292,1118 1292,1087 L 1292,965 C 1292,929 1282,901 1262,881 L 442,47 C 390,-6 338,-33 285,-33 Z"/>
  </g>
  <g id="bullet-char-template-9679" transform="scale(0.00048828125,-0.00048828125)">
   <path d="M 813,0 C 632,0 489,54 383,161 276,268 223,411 223,592 223,773 276,916 383,1023 489,1130 632,1184 813,1184 992,1184 1136,1130 1245,1023 1353,916 1407,772 1407,592 1407,412 1353,268 1245,161 1136,54 992,0 813,0 Z"/>
  </g>
  <g id="bullet-char-template-8226" transform="scale(0.00048828125,-0.00048828125)">
   <path d="M 346,457 C 273,457 209,483 155,535 101,586 74,649 74,723 74,796 101,859 155,911 209,963 273,989 346,989 419,989 480,963 531,910 582,859 608,796 608,723 608,648 583,586 532,535 482,483 420,457 346,457 Z"/>
  </g>
  <g id="bullet-char-template-8211" transform="scale(0.00048828125,-0.00048828125)">
   <path d="M -4,459 L 1135,459 1135,606 -4,606 -4,459 Z"/>
  </g>
  <g id="bullet-char-template-61548" transform="scale(0.00048828125,-0.00048828125)">
   <path d="M 173,740 C 173,903 231,1043 346,1159 462,1274 601,1332 765,1332 928,1332 1067,1274 1183,1159 1299,1043 1357,903 1357,740 1357,577 1299,437 1183,322 1067,206 928,148 765,148 601,148 462,206 346,322 231,437 173,577 173,740 Z"/>
  </g>
 </defs>
 <g ooo:name="page1" class="Page">
  <g class="com.sun.star.drawing.CustomShape">
   <g id="id3">
    <rect class="BoundingBox" stroke="none" fill="none" x="17766" y="4471" width="7008" height="7008"/>
    <path fill="rgb(184,113,35)" stroke="none" d="M 24773,7975 C 24773,8589 24611,9194 24304,9726 23996,10259 23554,10701 23021,11009 22489,11316 21884,11478 21270,11478 20655,11478 20050,11316 19518,11009 18985,10701 18543,10259 18235,9726 17928,9194 17766,8589 17766,7975 17766,7360 17928,6755 18235,6223 18543,5690 18985,5248 19518,4940 20050,4633 20655,4471 21269,4471 21884,4471 22489,4633 23021,4940 23554,5248 23996,5690 24304,6223 24611,6755 24773,7360 24773,7974 L 24773,7975 Z"/>
   </g>
  </g>
  <g class="com.sun.star.drawing.CustomShape">
   <g id="id4">
    <rect class="BoundingBox" stroke="none" fill="none" x="19063" y="6863" width="678" height="678"/>
    <path fill="rgb(28,28,28)" stroke="none" d="M 19740,7201 C 19740,7261 19724,7319 19695,7371 19665,7422 19622,7465 19571,7495 19519,7524 19461,7540 19402,7540 19342,7540 19284,7524 19232,7495 19181,7465 19138,7422 19108,7371 19079,7319 19063,7261 19063,7201 19063,7142 19079,7084 19108,7032 19138,6981 19181,6938 19232,6908 19284,6879 19342,6863 19402,6863 19461,6863 19519,6879 19571,6908 19622,6938 19665,6981 19695,7032 19724,7084 19740,7142 19740,7201 L 19740,7201 Z"/>
   </g>
  </g>
  <g class="com.sun.star.drawing.CustomShape">
   <g id="id5">
    <rect class="BoundingBox" stroke="none" fill="none" x="19422" y="6657" width="464" height="465"/>
    <path fill="rgb(28,28,28)" stroke="none" d="M 19885,6889 C 19885,6929 19874,6969 19854,7004 19834,7039 19804,7069 19769,7089 19734,7109 19694,7120 19654,7120 19613,7120 19573,7109 19538,7089 19503,7069 19473,7039 19453,7004 19433,6969 19422,6929 19422,6889 19422,6848 19433,6808 19453,6773 19473,6738 19503,6708 19538,6688 19573,6668 19613,6657 19654,6657 19694,6657 19734,6668 19769,6688 19804,6708 19834,6738 19854,6773 19874,6808 19885,6848 19885,6889 L 19885,6889 Z"/>
   </g>
  </g>
  <g class="com.sun.star.drawing.CustomShape">
   <g id="id6">
    <rect class="BoundingBox" stroke="none" fill="none" x="18827" y="6862" width="338" height="338"/>
    <path fill="rgb(28,28,28)" stroke="none" d="M 19163,7030 C 19163,7059 19155,7088 19140,7114 19126,7140 19105,7161 19079,7175 19053,7190 19024,7198 18995,7198 18966,7198 18937,7190 18911,7175 18885,7161 18864,7140 18850,7114 18835,7088 18827,7059 18827,7030 18827,7001 18835,6972 18850,6946 18864,6920 18885,6899 18911,6885 18937,6870 18966,6862 18995,6862 19024,6862 19053,6870 19079,6885 19105,6899 19126,6920 19140,6946 19155,6972 19163,7001 19163,7030 L 19163,7030 Z"/>
   </g>
  </g>
  <g class="com.sun.star.drawing.CustomShape">
   <g id="id7">
    <rect class="BoundingBox" stroke="none" fill="none" x="19228" y="6662" width="337" height="337"/>
    <path fill="rgb(209,149,43)" stroke="none" d="M 19564,6830 C 19564,6859 19556,6888 19541,6914 19527,6940 19506,6961 19480,6975 19454,6990 19425,6998 19396,6998 19367,6998 19338,6990 19312,6975 19286,6961 19265,6940 19251,6914 19236,6888 19228,6859 19228,6830 19228,6801 19236,6772 19251,6746 19265,6720 19286,6699 19312,6685 19338,6670 19367,6662 19396,6662 19425,6662 19454,6670 19480,6685 19506,6699 19527,6720 19541,6746 19556,6772 19564,6801 19564,6830 L 19564,6830 Z"/>
   </g>
  </g>
  <g class="com.sun.star.drawing.OpenFreeHandShape">
   <g id="id8">
    <rect class="BoundingBox" stroke="none" fill="none" x="17878" y="7582" width="6745" height="1825"/>
    <path fill="none" stroke="rgb(218,165,56)" stroke-width="152" stroke-linejoin="round" d="M 17954,9104 C 18142,9172 18326,9249 18518,9311 18739,9382 18924,9233 19100,9142 19296,9041 19433,8849 19682,8822 19918,8797 20074,8958 20264,9029 20456,9100 20567,9296 20828,9292 21085,9288 21247,9159 21410,9029 21588,8887 21811,8951 21992,8860 22193,8759 22057,8470 22274,8296 22593,8040 22489,8466 22819,8409 23070,8366 23294,8384 23401,8202 23595,7874 23744,8109 23927,8071 24146,8025 24367,7921 24509,7733 L 24546,7658"/>
   </g>
  </g>
  <g class="com.sun.star.drawing.OpenFreeHandShape">
   <g id="id9">
    <rect class="BoundingBox" stroke="none" fill="none" x="17903" y="8895" width="3365" height="1395"/>
    <path fill="none" stroke="rgb(218,165,56)" stroke-width="203" stroke-linejoin="round" d="M 18005,9191 C 18198,9147 18376,9271 18569,9229 18772,9184 18907,8916 19151,9022 19331,9100 19545,9183 19733,9116 20104,8984 19840,9446 20165,9454 20367,9459 20548,9390 20747,9398 20883,9403 21297,9374 21123,9642 20999,9833 20965,10085 20728,10187 L 20710,10168"/>
   </g>
  </g>
  <g class="com.sun.star.drawing.OpenFreeHandShape">
   <g id="id10">
    <rect class="BoundingBox" stroke="none" fill="none" x="21808" y="6144" width="1053" height="2405"/>
    <path fill="none" stroke="rgb(218,165,56)" stroke-width="152" stroke-linejoin="round" d="M 22177,8472 C 22257,8299 22380,8156 22468,7986 22549,7830 22834,7757 22776,7517 22738,7359 22752,7193 22760,7031 22771,6804 22552,6706 22403,6723 22148,6752 22162,6457 21934,6480 L 21885,6318 21885,6221"/>
   </g>
  </g>
  <g class="com.sun.star.drawing.CustomShape">
   <g id="id11">
    <rect class="BoundingBox" stroke="none" fill="none" x="22172" y="7866" width="716" height="716"/>
    <path fill="rgb(255,232,146)" stroke="none" d="M 22887,8224 C 22887,8286 22870,8348 22839,8402 22808,8457 22763,8502 22708,8533 22654,8564 22592,8581 22530,8581 22467,8581 22405,8564 22351,8533 22296,8502 22251,8457 22220,8402 22189,8348 22172,8286 22172,8224 22172,8161 22189,8099 22220,8045 22251,7990 22296,7945 22351,7914 22405,7883 22467,7866 22530,7866 22592,7866 22654,7883 22708,7914 22763,7945 22808,7990 22839,8045 22870,8099 22887,8161 22887,8224 L 22887,8224 Z"/>
   </g>
  </g>
  <g class="com.sun.star.drawing.CustomShape">
   <g id="id12">
    <rect class="BoundingBox" stroke="none" fill="none" x="20827" y="9291" width="717" height="717"/>
    <path fill="rgb(209,149,43)" stroke="none" d="M 21543,9649 C 21543,9712 21526,9774 21495,9828 21464,9883 21419,9928 21364,9959 21310,9990 21248,10007 21185,10007 21123,10007 21061,9990 21007,9959 20952,9928 20907,9883 20876,9828 20845,9774 20828,9712 20828,9649 20828,9587 20845,9525 20876,9471 20907,9416 20952,9371 21007,9340 21061,9309 21123,9292 21185,9292 21248,9292 21310,9309 21364,9340 21419,9371 21464,9416 21495,9471 21526,9525 21543,9587 21543,9649 L 21543,9649 Z"/>
   </g>
  </g>
  <g class="com.sun.star.drawing.CustomShape">
   <g id="id13">
    <rect class="BoundingBox" stroke="none" fill="none" x="17767" y="4472" width="7008" height="7008"/>
   </g>
  </g>
  <g class="com.sun.star.drawing.ClosedBezierShape">
   <g id="id14">
    <rect class="BoundingBox" stroke="none" fill="none" x="21427" y="4475" width="3348" height="7002"/>
    <path fill="rgb(0,0,0)" fill-opacity="0.2" stroke="none" d="M 21428,4476 C 21988,4501 22535,4660 23022,4941 23555,5249 23997,5691 24305,6224 24612,6756 24774,7361 24774,7975 24774,8590 24612,9195 24305,9727 23997,10260 23555,10702 23022,11010 22535,11291 21988,11450 21428,11475 L 21428,4476 Z"/>
   </g>
  </g>
 </g>
</svg>