<svg width="460" height="460" xmlns="http://www.w3.org/2000/svg" xmlns:xlink="http://www.w3.org/1999/xlink" overflow="hidden"><defs><clipPath id="clip0"><path d="M158 185 618 185 618 645 158 645Z" fill-rule="evenodd" clip-rule="evenodd"/></clipPath></defs><g clip-path="url(#clip0)" transform="translate(-158 -185)"><path d="M159 415C159 288.527 261.527 186 388 186 514.473 186 617 288.527 617 415 617 541.473 514.473 644 388 644 261.527 644 159 541.473 159 415Z" fill="#FFFF00" fill-rule="evenodd" fill-opacity="0.701961"/><path d="M165 415C165 291.841 264.841 192 388 192 511.159 192 611 291.841 611 415 611 538.159 511.159 638 388 638 264.841 638 165 538.159 165 415Z" fill="#FFC000" fill-rule="evenodd"/><path d="M189 415C189 305.095 278.095 216 388 216 497.905 216 587 305.095 587 415 587 524.905 497.905 614 388 614 278.095 614 189 524.905 189 415Z" fill="#FFFFCC" fill-rule="evenodd"/></g></svg>