<svg width="736" height="136" xmlns="http://www.w3.org/2000/svg" xmlns:xlink="http://www.w3.org/1999/xlink" overflow="hidden"><defs><clipPath id="clip0"><rect x="39" y="334" width="736" height="136"/></clipPath></defs><g clip-path="url(#clip0)" transform="translate(-39 -334)"><rect x="39" y="354" width="736" height="41" fill="#ED7D31"/><rect x="39" y="395" width="736" height="18" fill="#F4B183"/><rect x="39" y="408" width="736" height="26" fill="#843C0C"/><rect x="39" y="434" width="736" height="35" fill="#C55A11"/><rect x="39" y="346" width="736" height="25" fill="#FBE5D6"/><rect x="39" y="335" width="736" height="25" fill="#F8CBAD"/><path d="M85 419C85 401.879 152.829 388 236.5 388 320.171 388 388 401.879 388 419 388 436.121 320.171 450 236.5 450 152.829 450 85 436.121 85 419Z" fill="#843C0C" fill-rule="evenodd"/><path d="M107 419C107 405.745 164.531 395 235.5 395 306.469 395 364 405.745 364 419 364 432.255 306.469 443 235.5 443 164.531 443 107 432.255 107 419Z" fill="#FBE5D6" fill-rule="evenodd"/><path d="M140 418.5C140 408.283 182.757 400 235.5 400 288.243 400 331 408.283 331 418.5 331 428.717 288.243 437 235.5 437 182.757 437 140 428.717 140 418.5Z" fill="#ED7D31" fill-rule="evenodd"/><path d="M171 418C171 411.373 200.101 406 236 406 271.898 406 301 411.373 301 418 301 424.627 271.898 430 236 430 200.101 430 171 424.627 171 418Z" fill="#F4B183" fill-rule="evenodd"/></g></svg>