<svg width="680" height="680" xmlns="http://www.w3.org/2000/svg" xmlns:xlink="http://www.w3.org/1999/xlink" overflow="hidden"><defs><clipPath id="clip0"><path d="M48 75 728 75 728 755 48 755Z" fill-rule="evenodd" clip-rule="evenodd"/></clipPath><radialGradient cx="3.23374e+06" cy="3.23374e+06" r="4.5732e+06" fx="3.23374e+06" fy="3.23374e+06" gradientUnits="userSpaceOnUse" spreadMethod="pad" id="fill1" gradientTransform="matrix(0.000104987 0 0 0.000104987 49 75)"><stop offset="0" stop-color="#FFFF4C"/><stop offset="0.39" stop-color="#FFFF4C"/><stop offset="0.8" stop-color="#FFFFFF" stop-opacity="0"/><stop offset="1" stop-color="#FFFFFF" stop-opacity="0"/></radialGradient></defs><g clip-path="url(#clip0)" transform="translate(-48 -75)"><path d="M49 414.5C49 226.999 200.999 75 388.5 75 576.001 75 728 226.999 728 414.5 728 602.001 576.001 754 388.5 754 200.999 754 49 602.001 49 414.5Z" fill="url(#fill1)" fill-rule="evenodd"/><path d="M177 415C177 298.468 271.468 204 388 204 504.532 204 599 298.468 599 415 599 531.532 504.532 626 388 626 271.468 626 177 531.532 177 415Z" fill="#FFC000" fill-rule="evenodd"/><path d="M199 415C199 310.618 283.618 226 388 226 492.382 226 577 310.618 577 415 577 519.382 492.382 604 388 604 283.618 604 199 519.382 199 415Z" fill="#FFFFCC" fill-rule="evenodd"/></g></svg>